<svg width="1440" height="920" viewBox="0 0 1440 920" fill="none" xmlns="http://www.w3.org/2000/svg">
  <rect width="1440" height="920" rx="44" fill="#09090B"/>
  <rect x="24" y="24" width="1392" height="872" rx="34" fill="url(#paint0_linear)" stroke="url(#paint1_linear)" stroke-width="2"/>
  <g opacity="0.24">
    <path d="M0 120H1440" stroke="#F7F1EC" stroke-width="1"/>
    <path d="M0 240H1440" stroke="#F7F1EC" stroke-width="1"/>
    <path d="M0 360H1440" stroke="#F7F1EC" stroke-width="1"/>
    <path d="M0 480H1440" stroke="#F7F1EC" stroke-width="1"/>
    <path d="M0 600H1440" stroke="#F7F1EC" stroke-width="1"/>
    <path d="M0 720H1440" stroke="#F7F1EC" stroke-width="1"/>
    <path d="M160 0V920" stroke="#F7F1EC" stroke-width="1"/>
    <path d="M320 0V920" stroke="#F7F1EC" stroke-width="1"/>
    <path d="M480 0V920" stroke="#F7F1EC" stroke-width="1"/>
    <path d="M640 0V920" stroke="#F7F1EC" stroke-width="1"/>
    <path d="M800 0V920" stroke="#F7F1EC" stroke-width="1"/>
    <path d="M960 0V920" stroke="#F7F1EC" stroke-width="1"/>
    <path d="M1120 0V920" stroke="#F7F1EC" stroke-width="1"/>
    <path d="M1280 0V920" stroke="#F7F1EC" stroke-width="1"/>
  </g>
  <circle cx="992" cy="260" r="210" stroke="#DB5440" stroke-opacity="0.34" stroke-width="2"/>
  <circle cx="988" cy="258" r="130" stroke="#DB5440" stroke-opacity="0.46" stroke-width="2"/>
  <circle cx="1118" cy="626" r="174" stroke="#DB5440" stroke-opacity="0.28" stroke-width="2"/>
  <path d="M278 704C406 632 496 596 634 570C770 544 884 494 1068 364" stroke="#DB5440" stroke-opacity="0.78" stroke-width="3" stroke-linecap="round"/>
  <path d="M304 324C414 348 548 350 686 318C826 286 930 232 1064 166" stroke="#DB5440" stroke-opacity="0.44" stroke-width="2" stroke-linecap="round"/>
  <path d="M258 214L438 170L570 248L516 408L348 446L226 330L258 214Z" fill="#F7F1EC" fill-opacity="0.04" stroke="#F7F1EC" stroke-opacity="0.12" stroke-width="2"/>
  <path d="M284 230L416 196L520 254L486 382L364 418L258 320L284 230Z" stroke="#F7F1EC" stroke-opacity="0.08" stroke-width="1.5"/>
  <path d="M726 192L854 132L982 190L952 330L810 372L694 298L726 192Z" fill="#F7F1EC" fill-opacity="0.03" stroke="#F7F1EC" stroke-opacity="0.1" stroke-width="2"/>
  <path d="M742 206L844 156L944 204L918 312L818 344L720 284L742 206Z" stroke="#F7F1EC" stroke-opacity="0.08" stroke-width="1.5"/>
  <path d="M926 520L1102 468L1202 558L1174 706L1004 760L874 670L926 520Z" fill="#F7F1EC" fill-opacity="0.03" stroke="#F7F1EC" stroke-opacity="0.1" stroke-width="2"/>
  <path d="M948 536L1082 498L1164 570L1140 686L1012 730L906 660L948 536Z" stroke="#F7F1EC" stroke-opacity="0.08" stroke-width="1.5"/>
  <path d="M520 566L582 534L640 560L626 626L560 652L506 608L520 566Z" fill="#F7F1EC" fill-opacity="0.02" stroke="#F7F1EC" stroke-opacity="0.08" stroke-width="1.5"/>
  <path d="M594 586L822 472" stroke="#DB5440" stroke-opacity="0.38" stroke-width="2" stroke-dasharray="6 10" stroke-linecap="round"/>
  <path d="M438 422L580 520" stroke="#F7F1EC" stroke-opacity="0.12" stroke-width="1.5" stroke-dasharray="5 9" stroke-linecap="round"/>
  <text x="262" y="196" fill="#DFD1C5" fill-opacity="0.72" font-size="18" font-family="Arial, sans-serif">Parcel Cluster A</text>
  <text x="756" y="126" fill="#DFD1C5" fill-opacity="0.64" font-size="18" font-family="Arial, sans-serif">Transit Corridor</text>
  <text x="1006" y="792" fill="#DFD1C5" fill-opacity="0.64" font-size="18" font-family="Arial, sans-serif">Opportunity Zone</text>
  <circle cx="354" cy="304" r="10" fill="#DB5440"/>
  <circle cx="354" cy="304" r="22" fill="#B91829" fill-opacity="0.24"/>
  <circle cx="948" cy="246" r="10" fill="#DB5440"/>
  <circle cx="948" cy="246" r="22" fill="#B91829" fill-opacity="0.24"/>
  <circle cx="1032" cy="606" r="10" fill="#DB5440"/>
  <circle cx="1032" cy="606" r="22" fill="#B91829" fill-opacity="0.24"/>
  <g filter="url(#filter0_f)">
    <ellipse cx="1026" cy="214" rx="250" ry="188" fill="#B91829" fill-opacity="0.24"/>
  </g>
  <g filter="url(#filter1_f)">
    <ellipse cx="324" cy="710" rx="220" ry="150" fill="#DB5440" fill-opacity="0.16"/>
  </g>
  <defs>
    <filter id="filter0_f" x="576" y="-174" width="900" height="776" filterUnits="userSpaceOnUse" color-interpolation-filters="sRGB">
      <feFlood flood-opacity="0" result="BackgroundImageFix"/>
      <feBlend mode="normal" in="SourceGraphic" in2="BackgroundImageFix" result="shape"/>
      <feGaussianBlur stdDeviation="100" result="effect1_foregroundBlur_0_1"/>
    </filter>
    <filter id="filter1_f" x="-96" y="360" width="840" height="700" filterUnits="userSpaceOnUse" color-interpolation-filters="sRGB">
      <feFlood flood-opacity="0" result="BackgroundImageFix"/>
      <feBlend mode="normal" in="SourceGraphic" in2="BackgroundImageFix" result="shape"/>
      <feGaussianBlur stdDeviation="100" result="effect1_foregroundBlur_0_1"/>
    </filter>
    <linearGradient id="paint0_linear" x1="140" y1="80" x2="1268" y2="840" gradientUnits="userSpaceOnUse">
      <stop stop-color="#14141A"/>
      <stop offset="1" stop-color="#0A0A0F"/>
    </linearGradient>
    <linearGradient id="paint1_linear" x1="142" y1="54" x2="1180" y2="876" gradientUnits="userSpaceOnUse">
      <stop stop-color="#B91829"/>
      <stop offset="1" stop-color="#DB5440"/>
    </linearGradient>
  </defs>
</svg>
