<svg width="1200" height="630" viewBox="0 0 1200 630" fill="none" xmlns="http://www.w3.org/2000/svg">
  <rect width="1200" height="630" fill="#F4EEE7"/>
  <rect x="24" y="24" width="1152" height="582" rx="32" fill="url(#panel)" stroke="url(#border)" stroke-width="2"/>
  <g opacity="0.3">
    <path d="M24 146H1176" stroke="#A6AAA8"/>
    <path d="M24 268H1176" stroke="#A6AAA8"/>
    <path d="M24 390H1176" stroke="#A6AAA8"/>
    <path d="M24 512H1176" stroke="#A6AAA8"/>
    <path d="M204 24V606" stroke="#A6AAA8"/>
    <path d="M384 24V606" stroke="#A6AAA8"/>
    <path d="M564 24V606" stroke="#A6AAA8"/>
    <path d="M744 24V606" stroke="#A6AAA8"/>
    <path d="M924 24V606" stroke="#A6AAA8"/>
  </g>
  <circle cx="905" cy="192" r="126" stroke="#E50914" stroke-opacity="0.22" stroke-width="2"/>
  <circle cx="905" cy="192" r="72" stroke="#E50914" stroke-opacity="0.32" stroke-width="2"/>
  <circle cx="1004" cy="415" r="104" stroke="#111111" stroke-opacity="0.1" stroke-width="2"/>
  <path d="M708 186C780 214 842 250 894 310C928 349 957 392 981 438" stroke="#E50914" stroke-width="3" stroke-linecap="round"/>
  <circle cx="895" cy="312" r="8" fill="#E50914"/>
  <circle cx="981" cy="438" r="8" fill="#E50914"/>
  <circle cx="895" cy="312" r="18" fill="#E50914" fill-opacity="0.15"/>
  <circle cx="981" cy="438" r="18" fill="#E50914" fill-opacity="0.15"/>
  <rect x="74" y="70" width="58" height="58" rx="18" fill="#E50914"/>
  <path d="M103 119C96.6 111.9 89.5 105.5 89.5 96.6C89.5 89.2 95.4 83.2 102.7 83.2C110 83.2 116 89.2 116 96.6C116 105.5 108.8 111.9 103 119Z" fill="#FFF9F5"/>
  <circle cx="103" cy="96" r="5.2" fill="#E50914"/>
  <text x="154" y="106" fill="#111111" font-size="28" font-family="Inter, Arial, sans-serif" font-weight="700">One Atlaz</text>
  <text x="74" y="194" fill="#E50914" font-size="18" font-family="Inter, Arial, sans-serif" font-weight="700" letter-spacing="2">LAND INTELLIGENCE / MARKET CONTEXT / DEAL FLOW</text>
  <text x="74" y="278" fill="#111111" font-size="60" font-family="Inter, Arial, sans-serif" font-weight="800">A platform for</text>
  <text x="74" y="346" fill="#111111" font-size="60" font-family="Inter, Arial, sans-serif" font-weight="800">land, market,</text>
  <text x="74" y="414" fill="#111111" font-size="60" font-family="Inter, Arial, sans-serif" font-weight="800">and deal flow</text>
  <text x="74" y="478" fill="#4F5552" font-size="26" font-family="Inter, Arial, sans-serif">Connected land intelligence, market context, place insight, and deal workflow</text>
  <rect x="74" y="522" width="264" height="48" rx="24" fill="#FFFFFF" stroke="#D8D1C9"/>
  <text x="98" y="553" fill="#111111" font-size="20" font-family="Inter, Arial, sans-serif" font-weight="600">oneatlaz.com</text>
  <rect x="720" y="104" width="376" height="430" rx="28" fill="#FFFFFF" fill-opacity="0.72" stroke="#DDD5CD"/>
  <rect x="748" y="136" width="320" height="30" rx="15" fill="#F4EEE7"/>
  <rect x="748" y="194" width="146" height="126" rx="20" fill="#FFF5F2" stroke="#F2D6CF"/>
  <rect x="922" y="194" width="146" height="126" rx="20" fill="#F8F9F7" stroke="#E0E2DE"/>
  <rect x="748" y="348" width="320" height="20" rx="10" fill="#ECE7E0"/>
  <rect x="748" y="384" width="252" height="18" rx="9" fill="#ECE7E0"/>
  <rect x="748" y="428" width="206" height="18" rx="9" fill="#ECE7E0"/>
  <rect x="748" y="474" width="172" height="18" rx="9" fill="#F5D8DA"/>
  <defs>
    <linearGradient id="panel" x1="84" y1="36" x2="1128" y2="594" gradientUnits="userSpaceOnUse">
      <stop stop-color="#FFFDFC"/>
      <stop offset="1" stop-color="#F7F2EC"/>
    </linearGradient>
    <linearGradient id="border" x1="60" y1="24" x2="1114" y2="606" gradientUnits="userSpaceOnUse">
      <stop stop-color="#E8DCD2"/>
      <stop offset="1" stop-color="#E8A6AB"/>
    </linearGradient>
  </defs>
</svg>
