<svg width="1200" height="630" viewBox="0 0 1200 630" fill="none" xmlns="http://www.w3.org/2000/svg">
  <rect width="1200" height="630" fill="#08080A"/>
  <rect x="18" y="18" width="1164" height="594" rx="28" fill="url(#paint0_linear)" stroke="url(#paint1_linear)" stroke-width="2"/>
  <g opacity="0.22">
    <path d="M0 110H1200" stroke="#F7F1EC"/>
    <path d="M0 220H1200" stroke="#F7F1EC"/>
    <path d="M0 330H1200" stroke="#F7F1EC"/>
    <path d="M0 440H1200" stroke="#F7F1EC"/>
    <path d="M0 550H1200" stroke="#F7F1EC"/>
    <path d="M170 0V630" stroke="#F7F1EC"/>
    <path d="M340 0V630" stroke="#F7F1EC"/>
    <path d="M510 0V630" stroke="#F7F1EC"/>
    <path d="M680 0V630" stroke="#F7F1EC"/>
    <path d="M850 0V630" stroke="#F7F1EC"/>
    <path d="M1020 0V630" stroke="#F7F1EC"/>
  </g>
  <circle cx="902" cy="174" r="132" stroke="#DB5440" stroke-opacity="0.32" stroke-width="2"/>
  <circle cx="900" cy="174" r="76" stroke="#DB5440" stroke-opacity="0.52" stroke-width="2"/>
  <circle cx="974" cy="410" r="108" stroke="#DB5440" stroke-opacity="0.26" stroke-width="2"/>
  <path d="M158 480C282 418 392 388 522 364C648 340 760 294 940 176" stroke="#DB5440" stroke-width="3" stroke-linecap="round"/>
  <circle cx="308" cy="402" r="8" fill="#DB5440"/>
  <circle cx="308" cy="402" r="18" fill="#B91829" fill-opacity="0.24"/>
  <circle cx="882" cy="198" r="8" fill="#DB5440"/>
  <circle cx="882" cy="198" r="18" fill="#B91829" fill-opacity="0.24"/>
  <rect x="76" y="74" width="58" height="58" rx="18" fill="#111116" stroke="#DB5440" stroke-opacity="0.56"/>
  <path d="M95 110.5L105.5 93L116 110.5H111.8L105.5 100.1L99.2 110.5H95Z" fill="#F7F1EC"/>
  <path d="M97 114H114" stroke="#DB5440" stroke-width="2.8" stroke-linecap="round"/>
  <path d="M93 119H118" stroke="#6F0B16" stroke-width="2.2" stroke-linecap="round"/>
  <text x="156" y="108" fill="#F7F1EC" font-size="28" font-family="Georgia, serif">One Atlaz</text>
  <text x="76" y="228" fill="#F7F1EC" font-size="78" font-family="Georgia, serif">See the city</text>
  <text x="76" y="312" fill="#F7F1EC" font-size="78" font-family="Georgia, serif">as opportunity.</text>
  <text x="78" y="382" fill="#DFD1C5" font-size="20" font-family="Arial, sans-serif">The Location Economy Platform</text>
  <text x="78" y="420" fill="#B8ADA6" font-size="18" font-family="Arial, sans-serif">Spatial intelligence, marketplace discovery, content, and deal flow.</text>
  <defs>
    <linearGradient id="paint0_linear" x1="92" y1="52" x2="1088" y2="558" gradientUnits="userSpaceOnUse">
      <stop stop-color="#14141A"/>
      <stop offset="1" stop-color="#0A0A0F"/>
    </linearGradient>
    <linearGradient id="paint1_linear" x1="92" y1="52" x2="1030" y2="564" gradientUnits="userSpaceOnUse">
      <stop stop-color="#B91829"/>
      <stop offset="1" stop-color="#DB5440"/>
    </linearGradient>
  </defs>
</svg>
